<svg xmlns="http://www.w3.org/2000/svg" width="400" height="561.809"><g fill-rule="evenodd"><path fill="#049c04" d="M75.2 76.4c0 .222-1.071.4-2.413.4-1.775 0-2.473.158-2.642.6-.162.42-.817.6-2.188.6-1.076 0-1.957.18-1.957.4s-.636.4-1.413.4c-.886 0-1.498.223-1.642.6-.142.37-.75.6-1.588.6-.746 0-1.357.18-1.357.4s-.739.4-1.643.4c-1.296 0-1.594.127-1.412.6.207.541-.639.838-1.845.647-.165-.026-.3.237-.3.583 0 .438-.335.608-1.1.558-1.727-.114-2.166-.019-1.9.412.21.34-.909.604-1.9.447-.165-.026-.255.178-.2.453.065.326-.291.459-1.022.381-.756-.08-1.083.051-1.003.4.066.286-.039.549-.233.585s-.479.27-.633.52-.657.482-1.117.517-.804.161-.764.28c.116.348-1.773 2.106-2.009 1.869-.118-.117-.457.003-.753.267-1.317 1.176-1.759 1.481-2.149 1.481-.229 0-.417.27-.417.6s-.151.6-.336.6c-.184 0-.541.45-.791 1-.251.55-.709 1-1.018 1s-.659.373-.779.83c-.119.456-.59.927-1.046 1.046-.457.12-.83.376-.83.571s-.27.353-.6.353c-.339 0-.6.358-.6.824 0 .453-.18.712-.4.576-.227-.14-.4.196-.4.776 0 .644-.223 1.024-.6 1.024-.33 0-.6.27-.6.6s-.18.6-.4.6-.4.45-.4 1-.198 1-.44 1c-.705 0-2.76 2.414-2.76 3.242 0 .417-.18.758-.4.758s-.4.373-.4.829c0 .885-.866 1.971-1.571 1.971-.236 0-.429.701-.429 1.557 0 .933-.215 1.64-.536 1.763-.348.134-.473.64-.355 1.443.139.947.03 1.237-.464 1.237-.483 0-.645.391-.645 1.557 0 1.015-.209 1.638-.6 1.788-.377.144-.6.756-.6 1.642 0 .777-.18 1.413-.4 1.413-.222 0-.4 1.067-.4 2.4 0 1.653-.156 2.4-.5 2.4-.372 0-.464.871-.359 3.4.117 2.814.038 3.4-.457 3.4-1.008 0-1.084.887-1.084 12.6 0 11.673.078 12.6 1.066 12.6.473 0 .566.72.503 3.882-.053 2.607.071 3.931.376 4.033.25.083.455.911.455 1.838 0 .928.17 1.858.377 2.067.208.209.415 1.685.461 3.28.061 2.125.227 2.9.623 2.9.38 0 .539.589.539 2 0 1.581.136 2 .651 2 .536 0 .606.284.395 1.6-.203 1.274-.132 1.6.349 1.6q.605 0 .605 1.176c0 .647.18 1.288.4 1.424s.4.957.4 1.824c0 1.134.168 1.576.6 1.576.419 0 .6.422.6 1.4 0 .77.18 1.4.4 1.4s.4.714.4 1.587c0 1.247.129 1.538.6 1.358.454-.175.6.072.6 1.012 0 .684.16 1.243.357 1.243s.469.45.607 1 .428 1 .644 1c.215 0 .392.45.392 1s.18 1 .4 1 .4.366.4.813.27.916.6 1.042c.33.127.6.421.6.653 0 .714 1.334 3.492 1.677 3.492.178 0 .323.461.323 1.024 0 .58.173.916.4.776s.4.2.4.789c0 .57.27 1.14.6 1.266s.6.481.6.788c0 .306.18.557.4.557s.4.227.4.504.45.989 1 1.583c.55.593 1 1.446 1 1.896s.205.817.456.817c.6 0 1.515 1.228 1.531 2.054.007.36.463.949 1.013 1.309.621.407 1 1.031 1 1.646 0 .839.188.991 1.224.991.673 0 1.12.167.994.371s.14.489.593.632c.485.154.916.731 1.051 1.407.126.631.659 1.469 1.184 1.863s.954.944.954 1.222.27.505.6.505.6.338.6.751.268.973.596 1.245.479.683.337.912c-.165.268.078.33.678.173.936-.244 3.189 1.533 3.189 2.515 0 .222.16.404.355.404.496 0 4.045 3.547 4.045 4.042 0 .223.161.306.358.184s.461.048.588.376c.126.329.595.598 1.041.598.447 0 .813.18.813.4s.274.4.609.4.819.463 1.077 1.03c.259.566.969 1.288 1.578 1.603.719.372 1.027.785.878 1.175-.165.429-.047.53.413.354q.643-.246.645.395c0 .354.18.643.4.643s.4.27.4.6.178.6.395.6c.638 0 1.984 1.31 1.744 1.698-.12.196.024.322.321.281a5 5 0 0 1 .978-.026c.604.065 4.562 3.904 4.562 4.424 0 .233.27.423.6.423s.6.193.6.429c0 .553 1.018 1.571 1.571 1.571.236 0 .429.281.429.624s.142.535.316.428c.819-.506 2.94 1.071 2.704 2.011-.169.675-.065.937.372.937.335 0 .608.282.608.627 0 .454.231.554.836.362.83-.264 2.309 1.143 2.048 1.948-.06.186.11.265.379.175.619-.206 1.85.942 1.646 1.535-.085.247.229.548.698.671.469.122.95.596 1.069 1.052.126.481.544.83.994.83.428 0 .666.18.53.4s.037.4.385.4.837.45 1.088 1c.25.55.697 1 .991 1s.536.135.537.3c.002.753 2.306 2.9 3.111 2.9.632 0 .888.239.888.829 0 .99.891 1.971 1.791 1.971.356 0 1.064.45 1.574 1s1.131 1 1.381 1 .454.188.454.418c0 .543 1.839 2.382 2.382 2.382.23 0 .418.204.418.454s.45.871 1 1.381 1 1.119 1 1.354c0 .255.401.325 1 .175.756-.19 1-.094 1 .393 0 .353.27.643.6.643s.555.142.5.315c-.136.428 3.19 3.661 3.474 3.377.211-.211.38.535.273 1.208-.026.165.223.3.553.3s.6.18.6.4.225.355.5.3.473.227.44.627c-.039.473.136.653.5.513.316-.121.56.03.56.346s.483.616 1.1.687c.619.072 1.056.346 1 .627-.055.275.071.5.281.5.51 0 4.419 3.929 4.419 4.443 0 .222.192.285.427.14s.525.113.645.572c.121.46.378.737.573.617.195-.121.355.023.355.319s.348.565.773.597c.968.073 2.427 1.496 2.427 2.368 0 .866 1.161 1.715 2.367 1.731.531.007.849.13.706.273s-.006.459.306.7c.311.242.623.8.693 1.24.177 1.106.914 1.8 1.912 1.8.463 0 .944.269 1.07.598s.391.498.588.376.358.329.358 1.002c0 .999.166 1.226.9 1.237.986.014 2.3.85 2.3 1.464 0 .213.45.629 1 .923s1 .698 1 .896c0 .714 1.148 1.487 2.342 1.578.878.067 1.109.223.829.561-.27.325-.142.531.42.678.444.117.976.634 1.183 1.149.206.516.387.772.401.568.014-.203.469.048 1.013.558.543.511.89 1.087.77 1.28s-.069.309.112.257c.559-.16 2.06.992 1.886 1.447-.091.236.367.664 1.018.952.795.352 1.106.723.95 1.13-.144.376-.022.577.322.529.989-.138 2.093.011 1.854.25-.285.285 1.142 1.767 1.7 1.767.22 0 .4.19.4.423 0 .708 4.075 4.377 4.862 4.377.406 0 .738.27.738.6s.27.6.6.6.6.289.6.643q.002.64.645.395c.461-.177.578-.075.412.357-.142.371-.004.605.356.605.323 0 .587.27.587.6s.281.6.624.6.525.16.404.355c-.12.195.157.452.617.573s.718.408.574.64c-.164.266-.006.325.426.159.451-.173.592-.11.409.185-.153.248.091.644.546.888.452.242.717.611.588.82-.13.209.16.38.644.38.902 0 4.472 2.963 4.062 3.372-.125.126.073.228.439.228.367 0 .667.27.667.6s.27.6.6.6.6.281.6.624.18.512.4.376.4.033.4.376.27.624.6.624.6.27.6.6c0 .34.359.6.829.6 1.061 0 1.971.91 1.971 1.971 0 .557.258.829.786.829.931 0 3.009 1.923 3.396 3.142.149.472.538.858.864.858s1.009.45 1.519 1 1.131 1 1.381 1 .454.272.454.605c0 1.057 1.832 3.748 2.371 3.483.126-.062.286.343.356.9.071.574.384 1.012.723 1.012.329 0 .506.147.395.327s.508.941 1.376 1.691c.869.75 1.579 1.672 1.579 2.049s.18.797.4.933.4.602.4 1.036.27.893.6 1.019c.33.127.6.661.6 1.188 0 .615.231.957.647.957.474 0 .595.267.455 1-.128.671-.012 1 .353 1 .367 0 .545.512.545 1.567 0 .861.177 1.626.394 1.7.216.073.426.996.465 2.051.053 1.416.212 1.864.607 1.712.39-.15.534.222.534 1.383 0 1.185.161 1.587.637 1.587.507 0 .6.325.455 1.582-.119 1.031-.028 1.553.263 1.5.283-.052.489.932.565 2.707.066 1.534.284 2.89.483 3.013.2.123.395 1.613.434 3.311.054 2.305.21 3.087.617 3.087.394 0 .546.605.546 2.176 0 1.197.18 2.288.4 2.424.518.32.54 16.299.023 16.82-.207.209-.432 1.37-.5 2.58-.086 1.544-.278 2.168-.642 2.094-.285-.059-.489.121-.453.4.185 1.411-.072 3.926-.383 3.734-.195-.12-.452.157-.573.617-.125.48-.407.719-.661.562-.303-.187-.361.054-.184.759.199.791.108 1.034-.384 1.034-.353 0-.643.264-.643.587 0 .358-.235.498-.6.358-.439-.169-.6.05-.6.812 0 .574-.18 1.043-.4 1.043s-.4.24-.4.532-.45.774-1 1.068-1 .775-1 1.068c0 .292-.384.532-.854.532s-1.271.45-1.781 1-1.295 1-1.746 1c-.486 0-.819.262-.819.643 0 .401-.221.558-.588.417-.324-.124-.851.036-1.172.357s-.978.583-1.46.583c-.658 0-.774.126-.462.5.327.392-.061.47-1.799.36-1.4-.088-2.125.007-1.97.258.275.444-.61.882-1.782.882-.422 0-.767-.27-.767-.6s-.18-.6-.4-.6-.4-.63-.4-1.4c0-.872-.18-1.362-.476-1.3-.262.055-.545-.215-.63-.6-.095-.435.086-.7.477-.7.56 0 .629-1.497.629-13.613v-13.614l-1.387-1.386-1.386-1.387h-3.994c-3.164 0-4.064.127-4.335.61-.458.818-13.562.711-13.398-.11.058-.288-.304-.5-.851-.5-1.251 0-1.791-.711-1.913-2.519-.06-.895-.305-1.481-.618-1.481-.764 0-.689-3.049.082-3.345.843-.323.91-18.655.068-18.655-.293 0-.774-.45-1.068-1l-.535-1h-27.133c-21.492 0-27.111.104-27.032.5.055.275-.125.455-.4.4s-.5.17-.5.5-.225.6-.5.6c-.392 0-.475 2.724-.384 12.6.099 10.727.031 12.6-.457 12.6-.315 0-.681.281-.813.625s-.422.514-.643.377-.403.031-.403.374c0 .903-6.999.926-7.345.024-.193-.504-1.446-.6-7.855-.6s-7.662.096-7.855.6c-.127.33-.571.6-.988.6-.73 0-.757.568-.757 16 0 11.671-.123 16-.454 16-.25 0-.871.45-1.381 1-1.043 1.125-3.217 1.433-2.82.4.185-.483-.153-.6-1.734-.6-1.08 0-2.075-.18-2.211-.4s-.706-.4-1.266-.4c-.732 0-.956-.166-.795-.586.18-.467-.028-.536-1.019-.338-.858.172-1.16.112-.971-.193.15-.244-.097-.641-.549-.883s-.712-.618-.578-.836c.152-.245-.148-.297-.788-.137-.802.202-1.034.11-1.034-.407 0-.367-.18-.556-.4-.42s-.4.063-.4-.163c0-.539-2.483-3.066-2.887-2.937-.172.055-.313-.17-.313-.5s-.18-.6-.4-.6-.4-.45-.4-1c0-.622-.227-1-.6-1-.336 0-.6-.357-.6-.813 0-.446-.259-.911-.575-1.033a.615.615 0 0 1-.355-.792c.153-.398.024-.496-.425-.324-.582.223-.994-2.175-.682-3.968.031-.181-.128-.215-.353-.076-.261.161-.41-.554-.41-1.97 0-1.71-.139-2.224-.6-2.224-.901 0-.901-16.999 0-17.345.464-.178.6-.953.6-3.419 0-1.754.18-3.3.4-3.436s.4-1.322.4-2.636c0-1.755.159-2.45.6-2.619.407-.157.6-.795.6-1.988 0-.966.18-1.757.4-1.757.226 0 .4-1.148.4-2.643 0-2.185.104-2.603.6-2.412.471.18.6-.111.6-1.358 0-.873.18-1.587.4-1.587s.4-.45.4-1c0-.622.227-1 .6-1 .419 0 .6-.422.6-1.4 0-.77.18-1.4.4-1.4s.4-.559.4-1.243c0-.94.146-1.187.6-1.012.45.172.6-.066.6-.958 0-.653.18-1.187.4-1.187s.4-.461.4-1.024.16-.924.356-.803c.415.256 1.644-1.476 1.644-2.316 0-.314.27-.675.6-.802.33-.126.6-.527.6-.89 0-.362.72-1.379 1.6-2.259s1.6-1.849 1.6-2.153.18-.553.4-.553.4-.24.4-.532.45-.774 1-1.068 1-.775 1-1.068c0-.292.249-.532.553-.532s.648-.359.762-.798c.115-.439.541-.924.947-1.078 1.091-.413 1.648-1.076 1.811-2.159.084-.552.377-.915.686-.849.34.074.452-.111.303-.5-.147-.382-.014-.616.351-.616.323 0 .587-.18.587-.4s.289-.4.643-.4c.407 0 .558-.22.412-.6-.172-.45.066-.6.958-.6.653 0 1.187-.193 1.187-.429 0-.564 1.022-1.571 1.595-1.571.249 0 .353-.161.231-.358s.048-.461.376-.588c.513-.196.598-2.019.598-12.829 0-11.036.074-12.571.6-12.37.439.169.6-.05.6-.812V322h11.571c9.753 0 11.666-.094 12.172-.6.33-.33.748-.6.928-.6.789 0 .381-26.745-.411-26.953-.407-.106-.622-.385-.477-.62.185-.299-3.792-.427-13.309-.427H76.9v1.045c0 .576-.248 1.2-.55 1.388-.447.279-.457.493-.05 1.149.369.596.5 3.785.5 12.213V320H63.02c-12.708 0-13.811.054-14.172.7-.215.385-.528.61-.694.5s-.371.43-.457 1.2c-.085.77-.322 1.571-.526 1.78s-.371.627-.371.929c0 .301-.284.832-.631 1.179s-.544.965-.437 1.372c.106.408.039.646-.149.529-.189-.116-.541.159-.783.611-.244.455-.64.699-.888.546-.292-.181-.359-.045-.193.388.162.42.055.666-.289.666-.299 0-.658.296-.797.657-.138.362-.359.55-.49.419-.291-.291-1.343.708-1.343 1.276 0 .224-.25.552-.555.728s-.622.68-.703 1.12-.551.978-1.044 1.195c-.494.217-.898.545-.898.728 0 .477-1.064 1.477-1.571 1.477-.236 0-.429.283-.429.629 0 .875-1.096 1.883-1.665 1.531-.318-.197-.388-.075-.216.374.172.448.049.666-.377.666-.473 0-.589.298-.46 1.179.095.648.014 1.081-.18.961-.593-.367-1.902 1.124-1.902 2.165 0 .737-.16.919-.645.733-.452-.173-.578-.074-.421.334.144.376-.193.764-.956 1.102-.802.355-1.178.809-1.178 1.424 0 .496-.18.902-.4.902s-.4.551-.4 1.224-.148 1.132-.329 1.02c-.483-.299-1.671 1.237-1.671 2.161 0 .437-.253.795-.563.795q-.564-.002-.34.851c.144.549-.011.981-.437 1.219-.363.204-.66.726-.66 1.162s-.28.901-.623 1.032c-.343.132-.532.477-.42.767.128.336-.009.447-.377.306-.417-.16-.58.077-.58.844 0 .609-.172.96-.4.819-.425-.263-.537.214-.411 1.739.047.563-.255 1.172-.755 1.522-.524.367-.834 1.022-.834 1.762 0 .647-.18 1.177-.4 1.177s-.4.611-.4 1.357c0 .838-.23 1.446-.6 1.588-.41.157-.6.798-.6 2.019 0 .984-.18 1.9-.4 2.036s-.4.867-.4 1.624c0 .956-.183 1.376-.6 1.376-.419 0-.6.422-.6 1.4 0 .77-.18 1.4-.4 1.4s-.4.72-.4 1.6-.18 1.6-.4 1.6-.4 1.052-.4 2.357c0 1.727-.161 2.419-.6 2.588-.44.168-.6.862-.6 2.6 0 1.786-.155 2.429-.629 2.611-.519.199-.607.835-.5 3.61.08 2.096-.022 3.344-.271 3.302-.533-.091-.758 29.259-.229 29.897.209.252.422 1.488.473 2.747.065 1.59.255 2.288.624 2.288.354 0 .532.536.532 1.6q0 1.6.5 1.5c.343-.069.5.486.5 1.763 0 1.024.116 1.79.258 1.702.324-.201.742.852.742 1.868 0 .422.18.767.4.767s.4.546.4 1.213c0 .708.249 1.308.6 1.442.33.127.6.461.6.742s.261 1.014.58 1.629c.318.614.488 1.265.376 1.445s.077.329.42.329c.361 0 .624.343.624.813 0 .446.269.915.598 1.041.328.127.497.393.374.591-.259.42.204 2.112.498 1.818.368-.368 1.73 1.333 1.73 2.161 0 .453.18.712.4.576s.4.123.4.576c0 .466.261.824.6.824.377 0 .6.38.6 1.024 0 .563.148.932.329.82.345-.213 1.671 1.13 1.671 1.693 0 .18.45.569 1 .863s1 .775 1 1.068c0 .292.16.487.356.432.197-.055.727.322 1.179.837s1.01.821 1.239.679c.25-.155.322-.011.18.36-.14.364.027.718.404.863.353.136.642.497.642.804 0 .306.281.557.624.557s.512.18.376.4.033.4.376.4.624.232.624.515.392.544.871.58 1.296.525 1.816 1.085c.52.561 1.208 1.02 1.529 1.02s.584.18.584.4.439.4.976.4 1.088.18 1.224.4.597.4 1.024.4.776.27.776.6.251.6.557.6.656.256.776.569c.127.332.539.485.987.368.473-.124.863.042 1.012.431.148.384.719.632 1.455.632.827 0 1.213.197 1.213.618 0 .339.225.588.5.552 1.404-.182 3.121.072 2.9.43-.147.237.315.4 1.134.4.858 0 1.468.227 1.611.6.144.377.756.6 1.642.6.777 0 1.413.18 1.413.4 0 .231 1.267.4 3 .4 2.267 0 3 .133 3 .546s.847.563 3.5.62c1.925.042 3.56.246 3.633.455.081.23 6.466.379 16.288.379 14.195 0 16.126.073 15.924.6-.35.911 69.087.911 69.998 0 .499-.499 2.183-.6 10.052-.6 6.2 0 9.367-.138 9.205-.4-.155-.251.729-.4 2.376-.4 2.066 0 2.624-.128 2.624-.6 0-.466.531-.6 2.376-.6 1.307 0 2.488-.18 2.624-.4s.674-.4 1.195-.4 1.218-.27 1.548-.6c.358-.358 1.336-.6 2.428-.6 1.006 0 1.829-.18 1.829-.4s.72-.4 1.6-.4c1.156 0 1.6-.167 1.6-.6 0-.33.257-.6.571-.6.315 0 .835-.263 1.157-.585s.965-.513 1.429-.423c.676.13.843-.036.843-.839 0-.565.174-.893.4-.753.22.136.4.036.4-.223 0-.278.337-.382.824-.255.505.132.91-.005 1.043-.353.12-.313.649-.569 1.176-.569s.957-.18.957-.4.27-.4.6-.4c.339 0 .6-.358.6-.824 0-.453.16-.724.356-.603s.65-.228 1.009-.776c.405-.619 1.03-.997 1.644-.997s.991-.228.991-.6c0-.33.18-.6.4-.6.501 0 3.6-3.161 3.6-3.672 0-.206.142-.287.316-.18s.669-.332 1.1-.975c.431-.644 1.02-1.171 1.308-1.172s.412-.181.276-.401-.07-.4.146-.4c.927 0 2.855-2.493 2.886-3.731.017-.698.122-1.044.233-.769s.361.5.556.5.25-.272.122-.605c-.166-.432-.049-.534.412-.357.47.181.645.014.645-.614 0-.474.462-1.291 1.027-1.814s1.015-1.055 1-1.181c-.149-1.264.038-1.779.573-1.574.439.169.6-.05.6-.812 0-.574.168-1.043.373-1.043.206 0 .431-.495.5-1.1.07-.605.315-1.067.544-1.028.229.04.442-.23.473-.6.097-1.178 1.321-3.712 1.684-3.488.192.119.253-.504.135-1.384-.174-1.301-.092-1.6.438-1.6.515 0 .653-.414.653-1.957 0-1.371.18-2.026.6-2.188.432-.165.6-.842.6-2.419 0-1.204.18-2.3.4-2.436.235-.146.4-2.523.4-5.781 0-4.615.102-5.573.616-5.77.877-.336.824-12.249-.054-12.249-.459 0-.562-1.143-.562-6.224 0-4.047-.14-6.137-.4-5.976-.323.2-.684-5.201-.447-6.7.026-.165-.223-.3-.553-.3-.472 0-.6-.556-.6-2.6 0-1.867-.141-2.572-.5-2.5-.337.067-.484-.4-.451-1.433.039-1.231-.08-1.5-.6-1.363-.551.145-.628-.154-.512-1.967.087-1.362-.021-2.137-.3-2.137-.242 0-.437-.702-.437-1.571 0-.865-.27-1.842-.6-2.172-.334-.334-.6-1.312-.6-2.205 0-.883-.18-1.716-.4-1.852s-.4-.976-.4-1.866c0-1.275-.128-1.571-.6-1.389-.541.207-.838-.639-.647-1.845.026-.165-.247-.3-.605-.3-.52 0-.607-.279-.431-1.369.158-.972.058-1.432-.347-1.587-.314-.121-.57-.675-.57-1.231 0-.557-.16-1.013-.357-1.013s-.469-.45-.607-1-.428-1-.644-1c-.215 0-.392-.461-.392-1.024s-.158-.926-.351-.806c-.194.119-.461-.332-.596-1.003-.135-.677-.424-1.109-.648-.97-.223.138-.405-.015-.405-.34s-.188-.653-.418-.73-.448-.541-.485-1.033-.299-.894-.582-.894-.515-.45-.515-1c0-.652-.224-1-.643-1-.487 0-.583-.244-.393-1 .185-.738.092-1-.356-1-.344 0-.608-.352-.608-.812 0-.451-.9-1.685-2.023-2.773-1.112-1.078-2.048-2.3-2.08-2.717-.051-.689-1.097-2.084-1.097-1.465 0 .146-.268.043-.596-.229s-.497-.654-.376-.849-.073-.355-.43-.355c-.443 0-.609-.285-.523-.9.077-.555-.066-.862-.375-.8-.275.055-.5-.17-.5-.5s-.27-.6-.6-.6-.6-.193-.6-.429c0-.553-1.018-1.571-1.571-1.571a.43.43 0 0 1-.429-.429c0-.235-.28-.708-.623-1.051s-.528-.87-.413-1.172c.144-.375-.107-.548-.795-.548-.998 0-2.969-1.581-2.969-2.382 0-.23-.27-.418-.6-.418s-.6-.193-.6-.429c0-.553-1.018-1.571-1.571-1.571-.236 0-.429-.27-.429-.6s-.281-.6-.624-.6-.512-.18-.376-.4-.033-.4-.376-.4-.624-.174-.624-.386c0-.708-2.293-2.744-3.253-2.89-.538-.081-.897-.376-.831-.683.072-.333-.111-.452-.479-.31-.424.162-.525.042-.349-.417.171-.446.095-.551-.247-.339-.318.196-.573.007-.713-.53-.121-.46-.369-.743-.553-.629s-.732-.332-1.218-.989c-.487-.658-1.063-1.085-1.282-.949-.225.138-.274.043-.111-.219.16-.26.011-.57-.339-.705-.344-.132-.625-.501-.625-.82 0-.32-.148-.49-.329-.378-.367.227-1.671-1.146-1.671-1.761 0-.217-.551-.395-1.224-.395s-1.143-.135-1.046-.3c.175-.296-1.812-2.444-2.417-2.613a.303.303 0 0 1-.213-.387c.055-.165-.17-.3-.5-.3s-.6-.27-.6-.6-.27-.6-.6-.6-.6-.187-.6-.416c0-.532-3.1-3.584-3.64-3.584-.224 0-.296-.18-.16-.4s-.033-.4-.376-.4-.624-.188-.624-.417-.36-.803-.8-1.275-.8-.721-.8-.553c0 .169-.466-.247-1.036-.924-.569-.677-1.379-1.231-1.8-1.231-.42 0-.764-.18-.764-.4s-.264-.4-.587-.4c-.358 0-.498-.235-.358-.6.127-.33.018-.6-.241-.6-.589 0-1.614-.998-1.614-1.571 0-.236-.178-.429-.395-.429-.668 0-1.979-1.319-1.723-1.733.133-.215.066-.282-.149-.149-.414.256-1.733-1.055-1.733-1.723 0-.217-.463-.395-1.029-.395-1.014 0-2.171-.801-2.171-1.504 0-.198-.45-.602-1-.896s-1-.775-1-1.068c0-.292-.193-.532-.429-.532-.564 0-1.571-1.022-1.571-1.595 0-.249-.18-.341-.4-.205s-.4-.033-.4-.376c0-.401-.362-.624-1.013-.624-.556 0-1.115-.269-1.241-.598s-.391-.498-.588-.376-.358-.059-.358-.402-.264-.624-.587-.624c-.358 0-.498-.235-.358-.6.161-.42-.03-.6-.636-.6-.476 0-.755-.18-.619-.4s-.053-.4-.419-.4c-.438 0-.585-.213-.428-.621.144-.377.072-.518-.185-.36-.232.144-.52-.115-.641-.575-.17-.651-.43-.783-1.173-.597-.603.152-.954.066-.954-.234 0-.593-2.186-2.813-2.769-2.813-.237 0-.386-.225-.331-.5s-.125-.455-.4-.4-.5-.17-.5-.5-.193-.6-.429-.6c-.531 0-1.571-1.009-1.571-1.525 0-.21-.359-.476-.798-.59-.439-.115-.925-.541-1.081-.947-.464-1.211-3.574-4.138-4.397-4.138q-.763 0-1.27-1.4c-.389-1.078-.73-1.4-1.48-1.4-.599 0-.974-.231-.974-.6 0-.53-.753-.807-1.73-.637-.181.031-.223-.115-.093-.325s.05-.498-.177-.638-.309-.423-.183-.628c.201-.325-.64-.558-1.517-.419-.165.026-.3-.414-.3-.977s-.168-.92-.372-.793c-.205.126-.488.044-.628-.183s-.468-.291-.728-.142c-.259.148-.339.123-.175-.057.163-.18.096-.569-.149-.864s-.289-.538-.097-.539-.167-.272-.797-.6c-.63-.329-1.395-.598-1.7-.598s-.554-.27-.554-.6-.281-.6-.624-.6-.512-.18-.376-.4.044-.4-.205-.4c-.573 0-1.595-1.007-1.595-1.571 0-.236-.209-.429-.464-.429-.525 0-5.536-5.115-5.536-5.651 0-.192-.199-.349-.442-.349-.244 0-.797-.45-1.229-1-.47-.597-1.196-1-1.801-1-.733 0-.95-.165-.785-.595.125-.328.1-.556-.057-.507-.5.154-2.055-1.425-1.804-1.831.133-.215.066-.282-.149-.149-.428.264-1.733-1.065-1.733-1.765 0-.241-.261-.339-.58-.216-.351.135-.677-.087-.828-.563-.137-.432-.417-.682-.621-.556s-.371.057-.371-.153c0-.638-2.139-2.865-2.751-2.865-.316 0-1.266-.706-2.111-1.569-.846-.862-1.538-1.492-1.538-1.4s-.334-.146-.743-.531c-.408-.385-.723-.872-.7-1.082s-.139-.39-.36-.4c-.513-.023-3.797-3.388-3.797-3.89 0-.206-.161-.276-.358-.154s-.469-.066-.603-.418c-.136-.352-.504-.54-.822-.418-.39.15-.502.028-.346-.378.256-.669-.912-1.728-1.928-1.747-.361-.007-.769-.463-.907-1.013-.162-.646-.532-1-1.044-1-.435 0-.792-.264-.792-.587 0-.337-.237-.497-.555-.375-.347.133-.755-.239-1.087-.989-.293-.66-.866-1.289-1.275-1.395s-.84-.568-.959-1.024c-.12-.457-.479-.83-.799-.83-.833 0-1.828-1.109-1.489-1.659.18-.29.113-.357-.177-.177-.564.348-1.659-.665-1.659-1.535 0-.404-.358-.629-1-.629-.55 0-1-.201-1-.447 0-.249-.353-.354-.801-.237-.44.115-.702.051-.583-.142.12-.193-.076-.799-.434-1.345-.358-.547-.535-1.182-.393-1.411s.078-.418-.142-.418-.511.18-.647.4a.93.93 0 0 1-.724.394c-.286-.004-.237-.161.124-.394.509-.329.49-.389-.124-.394-.398-.003-.612-.186-.476-.406s-.033-.4-.376-.4c-.358 0-.624-.342-.624-.803 0-.451-1.049-1.835-2.4-3.165-1.32-1.3-2.4-2.559-2.4-2.798 0-.534-1.692-2.27-2.086-2.139-.157.053-.18-.18-.051-.516.149-.388.034-.569-.314-.495-.339.072-.597-.304-.676-.984-.077-.669-.367-1.1-.742-1.1-.393 0-.53-.225-.378-.621.137-.358.069-.517-.16-.374-.219.135-.501-.081-.625-.48a10 10 0 0 0-.597-1.42c-.204-.382-.371-1.057-.371-1.5 0-.449-.265-.805-.6-.805-.33 0-.6-.242-.6-.539 0-.687-1.133-2.973-1.625-3.277-.206-.127-.375-.951-.375-1.831 0-.965-.159-1.502-.4-1.353-.22.136-.4-.111-.4-.548s-.27-1.065-.6-1.395-.6-1.153-.6-1.828c0-.826-.197-1.229-.6-1.229-.453 0-.6-.489-.6-2 0-1.1-.18-2-.4-2s-.4-.9-.4-2c0-1.511-.147-2-.6-2-.476 0-.6-.575-.6-2.776 0-1.527-.18-2.888-.4-3.024-.253-.156-.4-4.871-.4-12.824 0-8.117.142-12.576.4-12.576.226 0 .4-1.133.4-2.6 0-2.044.128-2.6.6-2.6.408 0 .604-.417.613-1.3.013-1.309.758-2.7 1.446-2.7.204 0 .398-.362.431-.804.034-.442.342-1.085.685-1.429.344-.343.625-.8.625-1.015 0-.216.63-1.04 1.4-1.833s1.4-1.615 1.4-1.827.36-.291.8-.176c.52.136.8.012.8-.353 0-.359.436-.563 1.2-.563.82 0 1.2-.197 1.2-.624 0-.343.18-.512.4-.376s.4-.033.4-.376c0-.461.418-.624 1.6-.624.88 0 1.6-.18 1.6-.4s.63-.4 1.4-.4c.978 0 1.4-.181 1.4-.6 0-.531 7.111-.6 61.6-.6 49.067 0 61.58.102 61.5.5-.061.306.443.55 1.3.629.77.07 1.571.295 1.78.5.209.204.685.371 1.057.371.373 0 .78.267.905.593.138.361.488.494.892.338.408-.156.808.001 1.035.407.204.364.677.668 1.051.675.945.017 1.984.885 1.782 1.487-.093.275.116.5.465.5.348 0 .633.241.633.536 0 .294.45.741 1 .991.55.251 1 .73 1 1.064a.62.62 0 0 0 .627.609c.445 0 .553.232.373.8s-.072.8.373.8c.437 0 .627.383.627 1.267 0 .696.113 1.153.251 1.015.392-.392 1.749 2.558 1.749 3.803 0 .613.18 1.115.4 1.115s.4 1.052.4 2.357c0 1.727.161 2.419.6 2.588.506.194.6 1.484.6 8.2s-.094 8.006-.6 8.2c-.483.185-.6 1.089-.6 4.642 0 2.675-.158 4.413-.4 4.413-.22 0-.4.9-.4 2 0 1.535-.143 2-.617 2-.538 0-.602.969-.5 7.596.089 5.796-.001 7.642-.383 7.788-.385.147-.5 3.002-.5 12.403V206.4l-1.7.014c-.935.008-5.686.002-10.558-.013-7.452-.023-8.956.07-9.472.586-.349.349-1.311.613-2.237.613-3.3 0-3.233-.283-3.233 13.689 0 7.941-.142 12.311-.4 12.311-.22 0-.4.291-.4.647 0 .456-.243.583-.824.431-.505-.132-.91.005-1.043.353-.182.474-2.155.569-11.799.569-8.106 0-11.502.128-11.317.427.145.235-.114.526-.577.647-.645.168-.84.534-.84 1.573 0 .744-.163 1.353-.362 1.353-.2 0-.387 2.7-.417 6-.035 3.925.09 6 .363 6 .27 0 .416 2.11.416 6q0 6 .429 6c.235 0 .709.281 1.052.624.793.793 5.719.694 5.719-.115 0-.394 1.714-.509 7.6-.509 6.489 0 7.6.088 7.6.6 0 .419.422.6 1.4.6.907 0 1.365-.176 1.3-.5-.063-.313.462-.547 1.4-.624.825-.068 1.5-.293 1.5-.5s.27-.376.6-.376c.48 0 .6-.6.6-3 0-2.187-.136-2.973-.5-2.9-.821.164-.928-12.94-.11-13.398.455-.255.61-1.046.61-3.122 0-2.204.124-2.78.6-2.78.33 0 .6-.27.6-.6 0-.52 1.628-.6 12.253-.6 15.547 0 13.747 1.807 13.747-13.795v-12.073l1.185-1.056 1.185-1.056 11.408-.032c8.61-.025 11.384-.15 11.315-.51-.051-.263.132-.433.407-.378q.5.1.5-1.5c0-1.156.167-1.6.6-1.6.453 0 .6-.489.6-2 0-1.1.142-2 .315-2s.357-.557.409-1.238.353-1.496.668-1.811c.316-.316.473-.837.35-1.159-.126-.328.057-.693.416-.831.436-.168.642-.743.642-1.791 0-1.209.131-1.495.6-1.315.473.182.6-.116.6-1.412 0-.904.18-1.643.4-1.643s.4-.611.4-1.357c0-.747.234-1.447.519-1.557.291-.111.564-.965.622-1.942.056-.959.272-1.915.48-2.124.209-.209.379-1.238.379-2.287 0-1.532.118-1.862.6-1.678.473.182.6-.116.6-1.412 0-.904.18-1.643.4-1.643s.4-.9.4-2c0-1.511.147-2 .6-2 .472 0 .6-.558.6-2.624 0-1.647.149-2.531.4-2.376.254.157.4-.943.4-3.019 0-2.76.094-3.23.609-3.033.538.207.605-1.515.582-14.938-.023-13.105-.106-15.141-.609-14.948-.47.181-.582-.243-.582-2.196 0-1.33-.18-2.53-.4-2.666s-.4-1.052-.4-2.036c0-1.221-.19-1.862-.6-2.019-.33-.127-.6-.661-.6-1.188s-.18-.957-.4-.957-.4-.527-.4-1.171c0-.645-.27-1.442-.6-1.772s-.6-1.138-.6-1.795-.172-1.255-.382-1.329c-.211-.073-.427-.8-.481-1.615-.072-1.088-.224-1.378-.571-1.09-.34.282-.541.054-.719-.818l-.492-2.41c-.135-.66-.495-1.2-.8-1.2-.311 0-.555-.401-.555-.914 0-.592-.425-1.164-1.207-1.627-.664-.392-1.103-.881-.976-1.086.126-.205.04-.373-.193-.373s-.424-.45-.424-1-.206-1-.457-1c-.589 0-2.743-2.248-2.743-2.863 0-.259-.105-.365-.233-.237-.297.297-1.767-1.153-1.767-1.743 0-.243-.242-.35-.538-.236-.385.147-.485-.067-.353-.758.156-.816-.006-1.002-1.056-1.212-.72-.144-1.131-.424-.981-.668.16-.259.006-.322-.406-.164-.48.185-.666.039-.666-.519 0-.56-.185-.704-.669-.518-.508.195-.608.095-.413-.413.168-.438.054-.669-.331-.669-.323 0-.587-.18-.587-.4s-.264-.4-.587-.4c-.358 0-.498-.235-.358-.6.163-.423-.033-.6-.665-.6-.517 0-1.494-.634-2.309-1.499-.844-.895-1.71-1.449-2.148-1.375-.451.077-.733-.116-.733-.501 0-.428-.379-.625-1.2-.625-.723 0-1.16-.191-1.1-.48q.102-.481-1.4-.37c-1.146.085-1.5-.038-1.5-.519 0-.399-.352-.631-.957-.631-.527 0-1.061-.27-1.188-.6-.144-.377-.756-.6-1.642-.6-.777 0-1.413-.18-1.413-.4s-.63-.4-1.4-.4c-.978 0-1.4-.181-1.4-.6 0-.453-.489-.6-2-.6-1.1 0-2-.18-2-.4s-.135-.379-.3-.353c-1.567.248-3.7-.125-3.7-.647 0-.48-.6-.6-3-.6-1.733 0-3-.169-3-.4 0-.263-10.408-.4-30.424-.4-17.806 0-30.331.149-30.202.358.268.433-.895.938-1.417.616a.44.44 0 0 1-.14-.602c.141-.228-11.442-.372-29.993-.372-19.883 0-30.224.137-30.224.4m210.3 82.887c-.385.481-.7 1.03-.7 1.218s-.18.231-.4.095-.4-.076-.4.133-.45.493-1 .631-1 .516-1 .839c0 .869-1.27 2.197-2.101 2.197-.398 0-.827.269-.953.598-.127.328-.391.498-.588.376s-.358.059-.358.402-.193.624-.429.624c-.716 0-1.663 1.184-1.43 1.79.143.373.023.494-.35.351-.84-.322-2.913.719-3.137 1.576-.107.408-.529.83-.937.937-.409.106-.982.735-1.275 1.395-.308.696-.749 1.119-1.047 1.004-.286-.109-.61.16-.726.604-.115.441-.583.9-1.039 1.019-.457.12-.83.454-.83.743s-.405.587-.9.663c-.495.075-.857.351-.805.613.053.262-.143.385-.434.273-.66-.253-.932 4.417-.281 4.82.231.142.42.709.42 1.259 0 .57.173.893.403.751.221-.137.511.033.643.377s.67.625 1.197.625c.754 0 .957.212.957 1 0 .55.18 1 .4 1s.4.281.4.624.148.532.329.42c.367-.227 1.671 1.146 1.671 1.761 0 .217.27.395.6.395s.6.285.6.633.9 1.538 2 2.643c1.1 1.106 2 2.259 2 2.563 0 .734 1.255 2.174 1.671 1.917.181-.112.329.167.329.62s.193.824.429.824c.553 0 1.571 1.018 1.571 1.571 0 .236.218.384.484.329s.51.288.543.762c.065.938 1.544 2.611 2.699 3.054.399.153.622.444.497.647s-.039.432.192.509.451.542.488 1.034c.043.576.328.894.801.894.404 0 1.193.495 1.754 1.1s1.137 1.065 1.281 1.022.225.377.181.935c-.053.67.09.948.421.821.279-.107.729.321 1.014.965.322.729.813 1.157 1.325 1.157.626 0 .763.191.596.83-.228.874.825 2.478 1.395 2.126.181-.112.329-.026.329.19 0 .538 2.311 2.81 2.582 2.539.12-.12.218.15.218.599 0 .45.27 1.042.6 1.316s.6.765.6 1.092c0 .352.234.504.576.373.369-.142.76.193 1.087.933.42.947.618 1.069 1.101.679.401-.324.502-.331.317-.022-.15.25-.004.677.323.949.328.272.596.838.596 1.258 0 .419.27.867.6.993.33.127.6.481.6.788 0 .306.193.557.429.557.553 0 1.571 1.018 1.571 1.571 0 .236.18.429.4.429s.4.45.4 1 .193 1 .429 1c.235 0 .7.272 1.032.604s.814.477 1.071.323c.258-.154.198.059-.132.473s-.407.638-.171.497c.411-.246 1.771.992 1.771 1.613 0 .165.405.478.9.695.509.224.96.829 1.038 1.395.126.915 1.286 2.4 1.874 2.4.406 0 1.388 1.112 1.388 1.571 0 .236.29.429.643.429.487 0 .583.244.393 1-.187.743-.093 1 .365 1 .339 0 .821.45 1.072 1 .25.55.656 1 .902 1 .489 0 2.625 2.284 2.625 2.808 0 .179.188.388.418.465.23.076.447.529.483 1.005.036.477.209.778.385.669s.428.084.56.428.485.625.784.625c.345 0 .451.246.288.669-.195.508-.095.608.413.413.5-.192.672-.033.682.631.014 1.03.937 2.403 1.342 1.998.152-.152.38.119.506.602.127.483.389.779.584.659.195-.121.355.072.355.428s.182.535.403.398c.426-.263 1.229 1.388.926 1.902-.097.165.014.3.247.3s.424.281.424.624.181.511.403.374c.221-.137.511.033.643.377s.501.625.82.625c.32 0 .47.18.334.4s.033.4.376.4.624.181.624.402c0 .549 3.5 3.964 3.778 3.687.219-.219.393 1.334.236 2.111-.044.22.039.28.186.133.309-.308 1.8 1.072 1.8 1.667 0 .22.193.4.429.4.553 0 1.571 1.018 1.571 1.571 0 .236.27.429.6.429.34 0 .6.359.6.829 0 .885.866 1.971 1.571 1.971.236 0 .429.27.429.6s.18.6.4.6.4.9.4 2-.18 2-.4 2-.4.27-.4.6-.193.6-.429.6c-.705 0-1.571 1.086-1.571 1.971 0 .47-.26.829-.6.829-.33 0-.6.193-.6.429 0 .553-1.018 1.571-1.571 1.571-.236 0-.429.251-.429.557s-.27.661-.6.788c-.33.126-.6.596-.6 1.042s-.18.813-.4.813-.4.281-.4.624-.175.515-.388.383-.503.218-.644.777c-.14.559-.426 1.016-.635 1.016s-.268.181-.131.403c.137.221-.078.526-.477.677-.877.333-1.725 1.13-1.725 1.624 0 .198-.435.594-.966.878-.532.284-1.058.868-1.171 1.297s-.577.878-1.033.997c-.551.144-.83.542-.83 1.183 0 .531-.269 1.069-.598 1.195s-.498.391-.376.588-.07.358-.426.358-.536.18-.4.4-.134.4-.6.4-.756.148-.644.329c.227.367-1.146 1.671-1.761 1.671-.217 0-.395.45-.395 1s-.18 1-.4 1-.4.24-.4.532-.45.774-1 1.068-1 .666-1 .826c0 .535-2.171 2.774-2.689 2.774-.281 0-.511.45-.511 1s-.191 1-.424 1-.312.18-.176.4.057.4-.176.4c-.537 0-2.024 1.469-2.024 2 0 .22-.162.4-.361.4s-.55.543-.781 1.206-.834 1.372-1.339 1.575c-.506.202-.756.38-.557.394.565.039-1.019 1.625-1.624 1.625-.296 0-.538.27-.538.6s-.18.6-.4.6-.4.45-.4 1c0 .622-.227 1-.6 1-.33 0-.6.193-.6.429 0 .466-.985 1.571-1.4 1.571-.536 0-1.333 1.108-1.464 2.035-.075.531-.307.907-.516.835-.209-.071-.525.261-.701.738-.177.477-.691.964-1.143 1.082s-.739.429-.639.691c.101.262-.166.694-.592.961-.455.284-.655.686-.484.971.228.379.162.381-.297.01-.483-.39-.681-.268-1.101.679-.327.74-.718 1.075-1.087.933-.412-.158-.576.08-.576.835 0 .58-.27 1.159-.6 1.285-.33.127-.6.511-.6.854 0 .344-.098.526-.218.406-.324-.324-2.582 2.054-2.582 2.719 0 .693-2.103 2.966-2.743 2.966-.251 0-.457.27-.457.6s-.18.6-.4.6-.4.264-.4.587c0 .349-.236.497-.58.365-.433-.166-.56.067-.5.913.044.624-.1 1.109-.32 1.077-.397-.057-2.8 2.204-2.8 2.634 0 .123-.139.178-.309.121-.171-.057-.417.435-.549 1.093-.132.659-.397 1.099-.591.98-.193-.12-.351.063-.351.406s-.3.624-.667.624c-.366 0-.564.103-.438.228.305.306-2.213 2.928-2.595 2.702-.165-.097-.3.026-.3.275 0 .573-1.007 1.595-1.571 1.595-.236 0-.429.36-.429.8s-.221.755-.491.7c-.269-.055-.549.285-.622.757-.072.471-.976 1.713-2.009 2.761-1.15 1.166-1.829 2.191-1.753 2.643.077.457-.114.739-.5.739-.344 0-.625.18-.625.4s-.27.4-.6.4-.6.178-.6.395c0 .615-1.304 1.988-1.671 1.761-.181-.112-.329 0-.329.249 0 .573-1.007 1.595-1.571 1.595-.236 0-.429.178-.429.395 0 .615-1.304 1.988-1.671 1.761-.181-.112-.329.077-.329.42s-.18.624-.4.624c-.681 0-.502 6.218.196 6.796.327.272.515.625.416.784-.098.159.337.259.967.221.807-.048 1.084.089.94.466-.138.36.133.533.838.533.846 0 1.043.189 1.043 1 0 .8.2 1 1 1 .585 0 1 .23 1 .553 0 .305.373.651.83.771.456.119.931.603 1.054 1.076.176.672.432.808 1.17.622.706-.177.946-.071.946.417 0 .449.242.591.77.453.535-.14.706-.035.561.343-.225.586.737 1.765 1.44 1.765.236 0 .429.281.429.624s.161.524.358.402.469.066.603.418c.145.376.5.541.863.402.34-.13.512-.066.383.142-.364.59.702 2.012 1.508 2.012.398 0 1.138.447 1.644.993.506.547 1.038.877 1.181.734s.26-.078.26.145c0 .936 1.538 2.128 2.747 2.128.689 0 1.253-.18 1.253-.4s.45-.4 1-.4c.622 0 1-.227 1-.6s.378-.6 1-.6c.8 0 1-.2 1-1 0-.55.205-1 .456-1 .615 0 1.516-1.235 1.531-2.1.007-.385.212-.7.456-.7.243 0 .335-.279.204-.621s-.074-.52.125-.396c.43.266 3.228-2.274 3.228-2.93 0-.249.152-.408.339-.353.463.137 2.861-2.46 2.861-3.1 0-.283.27-.618.6-.745.33-.126.6-.516.6-.866s.141-.549.313-.442c.397.245 2.21-1.987 2.522-3.105.13-.463.445-.797.7-.742.256.055.42-.125.365-.4s.125-.455.4-.4.5-.174.5-.509c0-.334.45-.813 1-1.064.703-.32 1-.772 1-1.524 0-.73.317-1.237 1-1.603.55-.294 1-.775 1-1.068 0-.292.225-.487.5-.432s.455-.125.4-.4.17-.5.5-.5c.405 0 .6-.405.6-1.243 0-.832.166-1.179.502-1.05.276.106.733-.055 1.016-.357.282-.303.394-.55.249-.55s-.043-.268.229-.596.682-.479.911-.338c.229.142.308.082.175-.133-.251-.406 1.049-1.733 1.698-1.733.204 0 .337-.495.295-1.1-.05-.729.104-1.063.455-.99.291.06.432-.048.313-.24-.257-.415 1.583-2.11 1.923-1.771.129.129.234-.035.234-.365s.45-.84 1-1.134 1-.775 1-1.068c0-.292.205-.532.456-.532.572 0 1.514-1.213 1.531-1.972.007-.314.688-1.189 1.513-1.945s1.523-1.534 1.55-1.729c.028-.194.073-.489.1-.654.097-.571 1.945-2.5 2.397-2.5.249 0 .453-.24.453-.532s.45-.774 1-1.068 1-.756 1-1.025.27-.593.6-.72c.351-.134.6-.734.6-1.442 0-.667.135-1.192.3-1.166.877.139 1.718-.094 1.517-.419-.126-.205-.044-.488.183-.628s.307-.427.177-.638c-.13-.21-.088-.356.093-.325 1.139.198 1.731-.12 1.743-.937.015-1.047.862-2.3 1.555-2.3.263 0 .368-.18.232-.4s.033-.4.376-.4.624-.27.624-.6.194-.6.431-.6c.754 0 2.769-2.306 2.769-3.169 0-.467.259-.831.592-.831.326 0 .701-.433.834-.962s.605-1.057 1.048-1.173c.453-.119.688-.403.537-.648-.15-.242-.039-.388.25-.327.286.061.582-.295.657-.79s.305-.9.51-.9.372-.27.372-.6.18-.6.4-.6c.558 0 1.985-1.482 1.7-1.767-.128-.128.067-.233.433-.233.473 0 .667-.346.667-1.187 0-.944.137-1.135.666-.932.392.15.565.092.42-.142-.264-.426 1.051-1.739 1.742-1.739.231 0 .328-.148.216-.329-.237-.383 1.399-1.906 1.886-1.754.181.057.235-.05.12-.236-.232-.375 1.131-1.681 1.755-1.681.217 0 .401-.405.408-.9.014-1.032.859-2.3 1.531-2.3.251 0 .456-.173.456-.384 0-.523 3.066-3.616 3.584-3.616.229 0 .416-.373.416-.829 0-.885.866-1.971 1.571-1.971.236 0 .429-.27.429-.6s.18-.6.4-.6.4-.264.4-.587c0-.358.235-.498.6-.358.434.167.6-.044.6-.758 0-.936 1.713-3.097 2.455-3.097.19 0 .345-.199.345-.442 0-.244.45-.797 1-1.229.597-.47 1-1.196 1-1.801 0-.752.16-.952.621-.775.341.131.53.092.42-.086-.225-.365 1.153-1.667 1.764-1.667.217 0 .395-.27.395-.6s.18-.6.4-.6.4-.339.4-.753c0-.708 3.051-4.197 3.7-4.231a.32.32 0 0 0 .3-.316c0-.448 1.36-1.794 1.657-1.639.142.073.37-.315.508-.864s.427-.997.643-.997c.215 0 .392-.27.392-.6s.281-.6.624-.6.524-.161.402-.358.059-.466.402-.597c.342-.132.511-.421.374-.642s.011-.403.328-.403c1.039 0 1.87-1.857 1.87-4.181 0-2.258-.782-3.819-1.913-3.819-.294 0-.422-.181-.285-.403.137-.221-.032-.51-.374-.642-.343-.131-.524-.4-.402-.597s-.059-.358-.402-.358c-.361 0-.624-.343-.624-.813 0-.446-.27-.916-.6-1.042-.33-.127-.6-.492-.6-.811s-.135-.509-.3-.421c-.327.175-1.7-1.128-1.7-1.613a.32.32 0 0 0-.3-.316c-.444-.023-3.7-3.416-3.7-3.855 0-.207-.18-.265-.4-.129-.233.144-.4-.263-.4-.976 0-.673-.178-1.224-.395-1.224-.624 0-1.987-1.306-1.755-1.681.115-.186-.025-.289-.311-.229-.286.061-.581-.291-.656-.782s-.575-1.237-1.11-1.658-.973-.964-.973-1.208c0-.243-.155-.442-.345-.442-.742 0-2.455-2.161-2.455-3.097 0-.714-.166-.925-.6-.758-.365.14-.6 0-.6-.358 0-.323-.18-.587-.4-.587s-.4-.27-.4-.6-.193-.6-.429-.6c-.235 0-.685-.257-1-.571-.314-.315-.571-.765-.571-1 0-.236-.178-.429-.395-.429-.615 0-1.988-1.304-1.761-1.671.112-.181-.077-.329-.42-.329s-.63-.315-.637-.7c-.015-.822-.906-2.1-1.464-2.1-.213 0-.629-.45-.923-1s-.775-1-1.068-1-.532-.427-.532-.957c0-.527-.281-1.065-.625-1.197s-.511-.426-.371-.653.107-.367-.074-.31c-.487.152-2.123-1.371-1.886-1.754.112-.181.015-.329-.216-.329-.691 0-2.006-1.313-1.742-1.739.145-.234-.028-.292-.42-.142-.529.203-.666.012-.666-.932 0-.841-.194-1.187-.667-1.187-.366 0-.561-.105-.433-.233.298-.298-1.154-1.767-1.747-1.767-.249 0-.354-.353-.237-.8.129-.495.012-.8-.307-.8-.284 0-.615-.378-.735-.84-.14-.535-.398-.731-.709-.538q-.484.297-.187-.187c.191-.309.006-.566-.504-.7-.443-.116-.915-.644-1.048-1.173s-.508-.962-.834-.962c-.333 0-.592-.364-.592-.831 0-.863-2.015-3.169-2.769-3.169a.43.43 0 0 1-.431-.429c0-.235-.262-.69-.583-1.011s-.49-.825-.377-1.121c.15-.39-.073-.484-.817-.341-.92.176-1.023.07-1.023-1.051 0-1.179-.443-1.508-1.73-1.284-.181.031-.223-.115-.093-.325s.05-.498-.177-.638-.309-.423-.183-.628c.201-.325-.64-.558-1.517-.419-.165.026-.3-.499-.3-1.166 0-.708-.249-1.308-.6-1.442-.33-.127-.6-.511-.6-.854 0-.344-.105-.519-.233-.391-.265.265-1.767-1.123-1.767-1.632 0-.183-.45-.574-1-.868-.628-.336-1-.882-1-1.468 0-.577-.237-.932-.624-.932-.343 0-.532-.147-.421-.327s-.508-.941-1.376-1.691c-.869-.75-1.585-1.638-1.592-1.973-.016-.789-.946-2.009-1.531-2.009-.251 0-.456-.24-.456-.532s-.45-.774-1-1.068-1-.805-1-1.134c0-.33-.105-.494-.234-.366-.432.433-1.766-1.069-1.766-1.989 0-.501-.18-.911-.4-.911s-.4-.27-.4-.6-.242-.6-.538-.6c-.732 0-1.937-1.385-1.563-1.797.166-.182.096-.214-.154-.072s-.677-.008-.949-.335c-.272-.328-.375-.596-.229-.596.145 0 .033-.247-.249-.55-.283-.302-.74-.463-1.016-.357-.336.129-.502-.218-.502-1.05 0-.838-.195-1.243-.6-1.243-.33 0-.555-.225-.5-.5s-.125-.455-.4-.4-.5-.17-.5-.5-.291-.6-.647-.6c-.474 0-.595-.267-.455-1 .128-.671.012-1-.353-1a.54.54 0 0 1-.545-.536c0-.294-.45-.741-1-.991-.55-.251-1-.73-1-1.064s-.225-.564-.5-.509c-.302.06-.462-.256-.405-.8.053-.495-.127-.908-.4-.919-.272-.01-1.035-.708-1.695-1.552-.66-.843-1.335-1.454-1.5-1.358-.165.097-.3-.169-.3-.591 0-.823-2.464-3.68-3.173-3.68-.235 0-.382-.225-.327-.5s-.125-.455-.4-.4-.5-.155-.5-.467c0-.311-.188-.629-.418-.706s-.448-.541-.485-1.033-.222-.894-.411-.894c-.484 0-1.486-1.059-1.486-1.571 0-.236-.255-.429-.566-.429-.312 0-.8-.527-1.085-1.171s-.706-1.06-.934-.923c-.228.136-.145-.092.185-.506s.407-.638.171-.497c-.444.266-1.771-1.013-1.771-1.708 0-.217-.72-.395-1.6-.395s-1.6-.18-1.6-.4c0-.796-2.579-.415-3.3.487M94 165.767c0 .311-.187.629-.415.705-.588.196-.611 13.653-.023 13.849.656.218.595 8.079-.062 8.08-.344.001-.5.748-.5 2.4 0 1.578.162 2.399.472 2.399.26 0 .53.405.6.9l.128.9 12.5.106c8.904.075 12.5.234 12.5.554 0 .246.45.865 1 1.375l1 .927v11.619c0 11.742.019 11.9 1.368 11.644.202-.039.135.21-.149.552-.466.561.536.623 10.089.623 9.059 0 10.64.088 10.837.6.166.433.845.6 2.442.6 2.173 0 2.417-.163 2.243-1.5-.036-.275.213-.5.552-.5.532 0 .618-.922.618-6.649 0-5.407-.097-6.568-.519-6.218-.407.338-.54.132-.613-.951-.068-1.015.07-1.382.519-1.382.515 0 .613-.736.613-4.6 0-3.376.128-4.573.482-4.5.265.055.49-.093.5-.329.07-1.661.876-1.771 13.018-1.771 9.57 0 11.759-.102 12.229-.571.467-.468.571-2.549.571-11.4 0-9.486.076-10.829.616-10.829.468 0 .594-.385.522-1.6-.064-1.08-.281-1.6-.669-1.6-.432 0-.518-.345-.346-1.4l.227-1.4h-11.532c-9.882 0-11.565-.086-11.763-.6-.303-.792-2.655-.816-2.655-.028 0 .315-.405.63-.9.7l-.9.128-.105 13.5-.106 13.5h-1.594q-1.595 0-1.495.5c.077.387-2.098.524-9.6.607-8.453.093-9.7.029-9.7-.5 0-.443-.439-.607-1.624-.607-1.137 0-1.537-.14-1.334-.468q.292-.47-.372-.214c-.363.139-.641.125-.618-.032s.021-6.181-.005-13.386L122 166.4h-1c-.573 0-1-.231-1-.54 0-.342-.404-.512-1.1-.463-1.692.12-1.799.167-1.593.703.306.796-19.974.491-20.777-.313-.757-.757-2.53-.771-2.53-.02m23.496 164.681-1.104 1.193-.096 12.779c-.075 10.009.012 12.78.404 12.78.275 0 .5.18.5.4 0 .222 1.067.4 2.4.4s2.4-.178 2.4-.4c0-.253 2.8-.4 7.6-.4s7.6.147 7.6.4c0 .22.63.4 1.4.4s1.4-.18 1.4-.4.881-.4 1.957-.4c2.444 0 2.443.003 2.443-6.045 0-3.88-.113-4.823-.6-5.01-.475-.183-.6-1.02-.6-4.016 0-2.832.151-3.937.6-4.386.756-.756.875-6.943.133-6.943-.256 0-.355-.111-.219-.248.136-.136-.001-.496-.304-.8-.663-.662-8.811-.797-9.21-.152-.146.236-2.537.4-5.824.4-3.451 0-5.576-.152-5.576-.4 0-1.034-4.181-.366-5.304.848m16.004 26.25a141 141 0 0 1-7.8 0c-2.145-.072-.39-.131 3.9-.131s6.045.059 3.9.131m9-.016a5.7 5.7 0 0 1-1.8 0c-.495-.095-.09-.173.9-.173s1.395.078.9.173M50.282 393.7c-.095.495-.173.09-.173-.9s.078-1.395.173-.9a5.7 5.7 0 0 1 0 1.8M154.3 486.3c-9.405.06-24.795.06-34.2 0s-1.71-.109 17.1-.109 26.505.049 17.1.109"/><path fill="#0ca404" d="M135.417 76.372a.44.44 0 0 0 .14.602c.522.322 1.685-.183 1.417-.616-.29-.469-1.264-.46-1.557.014m84.683 6.704c.385.1 1.015.1 1.4 0 .385-.101.07-.183-.7-.183s-1.085.082-.7.183M19.737 131c.002 1.76.072 2.43.156 1.489.085-.94.084-2.38-.002-3.2-.086-.819-.155-.049-.154 1.711m.007 31.8c0 2.09.068 2.945.15 1.9a29 29 0 0 0 0-3.8c-.082-1.045-.15-.19-.15 1.9m73.217 10.4c0 3.41.061 4.805.136 3.1a86 86 0 0 0 0-6.2c-.075-1.705-.136-.31-.136 3.1m83.215 10.2c0 6.16.056 8.624.123 5.476a308 308 0 0 0 0-11.2c-.068-3.012-.123-.436-.123 5.724m-83.262 7.2c.003 1.1.081 1.503.173.895.092-.609.09-1.509-.005-2s-.171.005-.168 1.105m30.591 2.883c.497.096 1.217.092 1.6-.008.382-.1-.025-.179-.905-.174-.88.004-1.193.086-.695.182m22.8 0c.497.096 1.217.092 1.6-.008.382-.1-.025-.179-.905-.174-.88.004-1.193.086-.695.182m-10.705.917-9.8.221 9.676.09c6.118.056 9.768-.058 9.924-.311.136-.22.192-.36.124-.311s-4.534.189-9.924.311m-41.255.906c.169.168 5.875.258 12.681.2l12.374-.107-12.68-.199c-6.975-.11-12.543-.062-12.375.106m62.78.193c3.368.067 8.768.067 12 0s.475-.122-6.125-.122-9.244.055-5.875.122m-9.058 12.275c.051.756.207 1.304.346 1.218.268-.166.014-2.592-.271-2.592-.092 0-.125.618-.075 1.374m39.209 42.302c-.042 3.672.059 6.761.224 6.863s.253-1.911.196-4.476c-.187-8.32-.343-9.208-.42-2.387m-45.648 11.8c.09 1.039.716 1.92.744 1.048.015-.482-.152-.988-.372-1.124s-.387-.102-.372.076m-36.65 45.524c.001 7.04.055 9.864.121 6.275a408 408 0 0 0 0-12.8c-.066-3.451-.121-.515-.121 6.525m11.2 36.6c0 6.71.054 9.455.121 6.1s.067-8.845 0-12.2-.121-.61-.121 6.1m47.022-9.145c0 .19.45.345 1 .345s1-.069 1-.153c0-.085-.45-.24-1-.345s-1-.036-1 .153m-37.5 21.843c2.145.072 5.655.072 7.8 0s.39-.131-3.9-.131-6.045.059-3.9.131m15-.016a5.7 5.7 0 0 0 1.8 0c.495-.095.09-.173-.9-.173s-1.395.078-.9.173M192.4 361c0 .55.155 1 .345 1s.258-.45.153-1-.26-1-.345-1-.153.45-.153 1m52 23.176c0 .537.147 1.068.328 1.179.18.112.249-.328.154-.976-.21-1.43-.482-1.544-.482-.203M12.528 386.8c0 1.43.073 2.015.161 1.3s.089-1.885 0-2.6c-.088-.715-.161-.13-.161 1.3m87.65 12.6c0 6.82.054 9.666.121 6.325s.067-8.921 0-12.4c-.066-3.479-.121-.745-.121 6.075m-50.069-6.6c0 .99.078 1.395.173.9a5.7 5.7 0 0 0 0-1.8c-.095-.495-.173-.09-.173.9m22.873 36.8c0 8.91.053 12.555.118 8.1.064-4.455.064-11.745 0-16.2-.065-4.455-.118-.81-.118 8.1m-60.863 9.826c.13.234.28 1.269.333 2.3.054 1.031.222 1.874.374 1.874.414 0-.061-3.739-.533-4.2q-.412-.402-.174.026m232.374 4.174c0 .77.082 1.085.183.7s.1-1.015 0-1.4c-.101-.385-.183-.07-.183.7M39.6 476.455c0 .19.45.345 1 .345s1-.069 1-.153c0-.085-.45-.24-1-.345s-1-.036-1 .153m80.5 9.845c9.405.06 24.795.06 34.2 0s1.71-.109-17.1-.109-26.505.049-17.1.109"/></g></svg>